<?xml version="1.0" standalone="no"?>
<!DOCTYPE svg PUBLIC "-//W3C//DTD SVG 20010904//EN"
 "http://www.w3.org/TR/2001/REC-SVG-20010904/DTD/svg10.dtd">
<svg version="1.0" xmlns="http://www.w3.org/2000/svg"
 width="130.000000pt" height="32.000000pt" viewBox="0 0 130.000000 32.000000"
 preserveAspectRatio="xMidYMid meet">

<g transform="translate(0.000000,32.000000) scale(0.100000,-0.100000)"
fill="#000000" stroke="none">
<path d="M0 160 l0 -160 650 0 650 0 0 160 0 160 -650 0 -650 0 0 -160z m920
84 c0 -9 9 -18 20 -21 11 -3 20 -11 20 -18 0 -7 -9 -15 -20 -18 -15 -4 -20
-14 -20 -36 0 -20 7 -35 20 -43 27 -17 25 -38 -3 -38 -35 0 -47 19 -47 72 0
36 -4 48 -15 48 -8 0 -15 6 -15 14 0 8 7 16 15 20 8 3 15 12 15 21 0 8 7 15
15 15 8 0 15 -7 15 -16z m-236 -25 c20 -9 46 -52 46 -75 0 -2 -25 -4 -55 -4
-41 0 -55 -4 -55 -14 0 -21 35 -29 59 -14 29 18 49 -2 26 -26 -23 -23 -80 -21
-105 4 -31 31 -27 93 6 119 31 24 43 26 78 10z m156 -7 c0 -9 -10 -22 -22 -27
-19 -8 -24 -19 -26 -63 -3 -44 -6 -52 -23 -52 -17 0 -19 7 -19 76 0 75 0 76
24 72 14 -3 31 -1 38 3 20 13 28 11 28 -9z m238 12 c21 -6 52 -49 52 -74 0 -6
-23 -10 -55 -10 -56 0 -67 -8 -40 -30 12 -10 21 -10 42 -1 35 16 58 -3 29 -25
-29 -21 -82 -18 -106 6 -31 31 -27 93 6 119 29 23 36 24 72 15z m-614 -36 c7
-18 16 -42 21 -53 6 -17 10 -11 24 30 13 37 23 51 39 53 l22 3 -21 -53 c-12
-29 -25 -63 -30 -75 -11 -30 -47 -30 -58 0 -5 12 -18 46 -30 75 l-21 52 21 0
c13 0 24 -11 33 -32z m734 11 l14 -21 14 21 c8 11 24 21 35 21 19 0 19 -1 -3
-39 l-22 -38 22 -28 c12 -15 22 -32 22 -36 0 -17 -32 -9 -50 13 l-18 23 -19
-24 c-10 -13 -27 -22 -36 -20 -15 4 -14 8 8 42 l26 37 -27 35 -26 35 23 0 c14
0 30 -9 37 -21z m-1078 -14 c0 -26 -40 -97 -53 -93 -15 5 -58 88 -51 99 3 5
27 9 55 9 37 0 49 -4 49 -15z"/>
<path d="M632 188 c-19 -19 -14 -25 21 -23 44 4 44 4 23 20 -24 18 -29 18 -44
3z"/>
<path d="M1037 189 c-26 -15 -20 -26 12 -25 38 2 48 12 24 24 -12 7 -25 7 -36
1z"/>
</g>
</svg>
