<?xml version="1.0" encoding="UTF-8"?>
<svg id="Layer_1" xmlns="http://www.w3.org/2000/svg" version="1.1" viewBox="0 0 139.53 32">
  <!-- Generator: Adobe Illustrator 30.4.0, SVG Export Plug-In . SVG Version: 2.1.4 Build 226)  -->
  <defs>
    <style>
      .st0 {
        fill: #2f73f2;
      }

      .st1 {
        fill: #102d47;
      }

      .st2 {
        fill: #46c4ff;
      }
    </style>
  </defs>
  <g>
    <path class="st2" d="M9.07,22.81l4.3-10.61H3.66c-1.71,0-2.85,1.82-2.14,3.41l3.24,7.28c.85,1.91,3.52,1.87,4.31-.08Z"/>
    <path class="st0" d="M32.46,1h-7.38c-1.74,0-3.3,1.07-3.97,2.72l-9.69,23.98c-1.34,2.53-2.85,3.25-3.43,3.3h12.84c1.73,0,3.29-1.06,3.96-2.69l9.85-23.96c.65-1.59-.49-3.35-2.17-3.35Z"/>
  </g>
  <g>
    <path class="st1" d="M47.38,10.32l2.38,7.29c.43,1.28.72,2.45.97,3.58h.11c.26-1.18.54-2.29.94-3.58l2.25-7.29h5.39l-6.3,15.48h-5.13l-6.09-15.48h5.49Z"/>
    <path class="st1" d="M65.13,19.63c.17,1.86,2.34,2.83,4.73,2.83,1.78,0,3.22-.21,4.7-.7l.69,3.35c-1.79.73-3.82,1.07-6.06,1.07-5.59,0-8.83-3.15-8.83-7.97,0-3.51,2.37-8.28,8.34-8.28,5.58,0,7.46,4.32,7.46,7.87,0,.75-.1,1.49-.19,1.82h-10.83ZM71.43,16.2c0-.88-.51-3-3.02-3-2.26,0-3.18,1.82-3.34,3h6.36Z"/>
    <path class="st1" d="M79.18,15.57c0-2.52-.03-3.96-.13-5.25h4.32l.16,3.06h.12c.83-2.47,2.93-3.44,4.55-3.44.45,0,.68,0,1.08.09v4.67c-.41-.09-.84-.16-1.43-.16-2.07,0-3.28,1.05-3.57,2.53-.04.29-.06.61-.06.91v7.83h-5.04v-10.23Z"/>
    <path class="st1" d="M98.34,5.82v4.5h3.61v3.75h-3.61v5.12c0,1.89.37,2.89,2.01,2.89.69,0,1.23-.08,1.54-.16l.04,3.8c-.64.25-1.88.46-3.31.46-1.68,0-3.06-.63-3.84-1.46-.91-.95-1.34-2.52-1.34-4.64v-6h-2.13v-3.75h2.13v-3.38l4.89-1.12Z"/>
    <path class="st1" d="M108.65,19.63c.17,1.86,2.34,2.83,4.72,2.83,1.78,0,3.22-.21,4.7-.7l.69,3.35c-1.79.73-3.82,1.07-6.06,1.07-5.59,0-8.83-3.15-8.83-7.97,0-3.51,2.37-8.28,8.34-8.28,5.58,0,7.46,4.32,7.46,7.87,0,.75-.1,1.49-.19,1.82h-10.83ZM114.96,16.2c0-.88-.51-3-3.02-3-2.26,0-3.18,1.82-3.34,3h6.36Z"/>
    <path class="st1" d="M126.09,10.32l1.71,2.54c.5.74.97,1.45,1.43,2.21h.09c.46-.86.89-1.58,1.34-2.31l1.51-2.44h5.58l-5.62,7.3,5.68,8.19h-5.77l-1.71-2.74c-.49-.76-.93-1.54-1.35-2.35h-.09c-.46.86-.9,1.6-1.35,2.35l-1.63,2.74h-5.65l5.84-7.96-5.69-7.53h5.66Z"/>
  </g>
</svg>